<?xml version="1.0" encoding="utf-8" standalone="no"?>
<!DOCTYPE svg PUBLIC "-//W3C//DTD SVG 1.1//EN"
  "http://www.w3.org/Graphics/SVG/1.1/DTD/svg11.dtd">
<svg xmlns:xlink="http://www.w3.org/1999/xlink" width="293.4pt" height="291.6pt" viewBox="0 0 293.4 291.6" xmlns="http://www.w3.org/2000/svg" version="1.1">
 <metadata>
  <rdf:RDF xmlns:dc="http://purl.org/dc/elements/1.1/" xmlns:cc="http://creativecommons.org/ns#" xmlns:rdf="http://www.w3.org/1999/02/22-rdf-syntax-ns#">
   <cc:Work>
    <dc:type rdf:resource="http://purl.org/dc/dcmitype/StillImage"/>
    <dc:date>2023-05-11T15:28:30.305447</dc:date>
    <dc:format>image/svg+xml</dc:format>
    <dc:creator>
     <cc:Agent>
      <dc:title>Matplotlib v3.6.2, https://matplotlib.org/</dc:title>
     </cc:Agent>
    </dc:creator>
   </cc:Work>
  </rdf:RDF>
 </metadata>
 <defs>
  <style type="text/css">*{stroke-linejoin: round; stroke-linecap: butt}</style>
 </defs>
 <g id="figure_1">
  <g id="patch_1">
   <path d="M 0 291.6 
L 293.4 291.6 
L 293.4 0 
L 0 0 
z
" style="fill: #ffffff"/>
  </g>
  <g id="axes_1">
   <g id="line2d_1">
    <path d="M 17.518506 178.559999 
L 19.156506 178.559999 
L 20.794506 178.559999 
" clip-path="url(#pc0ba8a52ef)" style="fill: none; stroke: #000000; stroke-width: 1.5; stroke-linecap: square"/>
   </g>
   <g id="line2d_2">
    <path d="M 17.518506 113.040001 
L 19.156506 113.040001 
L 20.794506 113.040001 
" clip-path="url(#pc0ba8a52ef)" style="fill: none; stroke: #000000; stroke-width: 1.5; stroke-linecap: square"/>
   </g>
   <g id="line2d_3">
    <path d="M 19.156506 113.040001 
L 19.156506 110.582999 
L 19.156506 108.126001 
" clip-path="url(#pc0ba8a52ef)" style="fill: none; stroke: #000000; stroke-width: 1.5; stroke-linecap: square"/>
   </g>
   <g id="line2d_4">
    <path d="M 19.156506 183.473999 
L 19.156506 181.017001 
L 19.156506 178.559999 
" clip-path="url(#pc0ba8a52ef)" style="fill: none; stroke: #000000; stroke-width: 1.5; stroke-linecap: square"/>
   </g>
   <g id="line2d_5">
    <path d="M 27.302867 187.380002 
L 27.074662 180.883128 
L 26.442296 170.488127 
L 25.72234 157.819219 
L 25.485401 149.698125 
L 25.485401 141.901875 
L 25.708666 134.105625 
L 26.21271 124.685155 
L 27.247878 106.493906 
L 27.302867 104.219998 
L 27.302867 104.219998 
" clip-path="url(#pc0ba8a52ef)" style="fill: none; stroke: #000000; stroke-width: 1.5; stroke-linecap: square"/>
   </g>
   <g id="line2d_6">
    <path d="M 67.01782 204.39 
L 69.244034 201.185859 
L 71.189638 197.981721 
L 72.882208 194.777579 
L 74.347532 191.573437 
L 75.774625 187.911561 
L 76.96921 184.249689 
L 78.072509 180.130078 
L 79.04433 175.552735 
L 79.793032 170.975391 
L 80.451626 165.482579 
L 80.929086 159.532031 
L 81.239445 152.666016 
L 81.337077 145.342266 
L 81.211056 138.018515 
L 80.869433 131.1525 
L 80.357779 125.201954 
L 79.659167 119.70914 
L 78.869189 115.131796 
L 77.847443 110.554453 
L 76.690665 106.434842 
L 75.440887 102.77297 
L 73.950622 99.111093 
L 72.4229 95.906952 
L 70.660744 92.702814 
L 68.637857 89.498672 
L 67.01782 87.21 
L 67.01782 87.21 
" clip-path="url(#pc0ba8a52ef)" style="fill: none; stroke: #000000; stroke-width: 1.5; stroke-linecap: square"/>
   </g>
   <g id="line2d_7">
    <path d="M 135.785672 224.235 
L 136.193686 219.945588 
L 136.39004 215.656176 
L 136.402349 210.753985 
L 136.20435 205.239023 
L 135.744291 198.498515 
L 134.832247 188.694141 
L 132.968166 169.085391 
L 132.393727 160.506563 
L 132.075934 152.540508 
L 131.992375 144.574453 
L 132.149579 136.608399 
L 132.535189 128.642343 
L 133.2218 119.450742 
L 134.397693 107.195275 
L 135.793618 92.48871 
L 136.264642 85.135431 
L 136.417895 79.620465 
L 136.353322 74.718282 
L 136.100409 70.42887 
L 135.785672 67.365 
L 135.785672 67.365 
" clip-path="url(#pc0ba8a52ef)" style="fill: none; stroke: #000000; stroke-width: 1.5; stroke-linecap: square"/>
   </g>
   <g id="line2d_8">
    <path d="M 150.052456 227.069998 
L 149.545113 221.3557 
L 149.206719 215.006485 
L 149.06341 208.022343 
L 149.132668 199.768356 
L 149.452137 189.609607 
L 150.749461 154.688906 
L 150.822926 143.895234 
L 150.671175 133.101563 
L 150.275478 121.038048 
L 149.088599 89.291954 
L 149.090942 81.037968 
L 149.315917 74.053834 
L 149.745124 67.70461 
L 150.052456 64.530002 
L 150.052456 64.530002 
" clip-path="url(#pc0ba8a52ef)" style="fill: none; stroke: #000000; stroke-width: 1.5; stroke-linecap: square"/>
   </g>
   <g id="line2d_9">
    <path d="M 190.48151 244.710003 
L 192.928854 239.30086 
L 195.130871 233.891724 
L 197.111937 228.482581 
L 199.131787 222.300707 
L 200.915876 216.118833 
L 202.486061 209.936952 
L 204.019776 202.982344 
L 205.328381 196.027736 
L 206.54105 188.300394 
L 207.520198 180.573048 
L 208.283143 172.845704 
L 208.888839 164.345625 
L 209.262651 155.845547 
L 209.41287 147.345469 
L 209.34286 138.845391 
L 209.051059 130.345312 
L 208.530964 121.845233 
L 207.771098 113.345155 
L 206.858446 105.617813 
L 205.717889 97.890467 
L 204.479985 90.935859 
L 203.02361 83.981247 
L 201.327705 77.026635 
L 199.598995 70.844761 
L 197.640339 64.662888 
L 195.426892 58.481014 
L 193.257846 53.07187 
L 190.847196 47.662735 
L 190.48151 46.889997 
L 190.48151 46.889997 
" clip-path="url(#pc0ba8a52ef)" style="fill: none; stroke: #000000; stroke-width: 1.5; stroke-linecap: square"/>
   </g>
   <g id="line2d_10">
    <path d="M 262.522872 270.540001 
L 262.94155 266.641877 
L 263.080383 262.743753 
L 262.970479 258.845629 
L 262.64287 254.947505 
L 261.972856 250.074844 
L 261.064755 245.202191 
L 259.731727 239.355001 
L 257.93873 232.533282 
L 254.843002 221.813439 
L 249.764795 204.271877 
L 247.475675 195.501095 
L 245.671759 187.704843 
L 244.30462 180.883124 
L 243.155742 174.061407 
L 242.239995 167.239688 
L 241.568119 160.417969 
L 241.147383 153.59625 
L 240.982129 146.774531 
L 241.073978 139.952812 
L 241.42203 133.131094 
L 242.02277 126.309376 
L 242.869769 119.487657 
L 243.953368 112.665938 
L 245.25993 105.844219 
L 247.002383 98.047967 
L 248.975174 90.251718 
L 251.688919 80.506404 
L 259.488923 53.219528 
L 260.859111 47.372346 
L 261.808593 42.499685 
L 262.530503 37.627032 
L 262.907784 33.728908 
L 263.075006 29.830784 
L 263.001301 25.932652 
L 262.655442 22.034528 
L 262.522872 21.059999 
L 262.522872 21.059999 
" clip-path="url(#pc0ba8a52ef)" style="fill: none; stroke: #000000; stroke-width: 1.5; stroke-linecap: square"/>
   </g>
   <g id="line2d_11">
    <path d="M 275.881494 271.8 
L 275.881494 19.8 
L 275.881494 19.8 
" clip-path="url(#pc0ba8a52ef)" style="fill: none; stroke: #000000; stroke-width: 1.5; stroke-linecap: square"/>
   </g>
   <g id="line2d_12">
    <path d="M 27.302867 104.219998 
L 27.302867 87.21 
L 67.01782 87.21 
" clip-path="url(#pc0ba8a52ef)" style="fill: none; stroke: #000000; stroke-width: 1.5; stroke-linecap: square"/>
   </g>
   <g id="line2d_13">
    <path d="M 27.302867 187.380002 
L 27.302867 204.39 
L 67.01782 204.39 
" clip-path="url(#pc0ba8a52ef)" style="fill: none; stroke: #000000; stroke-width: 1.5; stroke-linecap: square"/>
   </g>
   <g id="line2d_14">
    <path d="M 135.785672 67.365 
L 135.785672 64.530002 
L 150.052456 64.530002 
" clip-path="url(#pc0ba8a52ef)" style="fill: none; stroke: #000000; stroke-width: 1.5; stroke-linecap: square"/>
   </g>
   <g id="line2d_15">
    <path d="M 135.785672 224.235 
L 135.785672 227.069998 
L 150.052456 227.069998 
" clip-path="url(#pc0ba8a52ef)" style="fill: none; stroke: #000000; stroke-width: 1.5; stroke-linecap: square"/>
   </g>
   <g id="line2d_16">
    <path d="M 190.48151 46.889997 
L 190.48151 21.059999 
L 262.522872 21.059999 
" clip-path="url(#pc0ba8a52ef)" style="fill: none; stroke: #000000; stroke-width: 1.5; stroke-linecap: square"/>
   </g>
   <g id="line2d_17">
    <path d="M 190.48151 244.710003 
L 190.48151 270.540001 
L 262.522872 270.540001 
" clip-path="url(#pc0ba8a52ef)" style="fill: none; stroke: #000000; stroke-width: 1.5; stroke-linecap: square"/>
   </g>
   <g id="line2d_18">
    <path d="M 19.156506 178.232401 
L 19.156506 178.232401 
L 26.931697 178.232401 
L 78.714051 177.241513 
L 133.040159 169.983039 
L 150.374538 168.016763 
L 209.271303 155.559849 
L 241.06785 151.454234 
L 275.881494 145.224361 
L 275.881494 145.224361 
" clip-path="url(#pc0ba8a52ef)" style="fill: none; stroke: #0000ff; stroke-linecap: square"/>
   </g>
   <g id="line2d_19">
    <path d="M 19.156506 170.1243 
L 19.156506 170.1243 
L 26.418545 170.1243 
L 80.062021 168.96214 
L 132.596652 163.931168 
L 150.564801 162.425768 
L 209.332466 153.228596 
L 241.032612 150.183313 
L 275.881494 145.574025 
L 275.881494 145.574025 
" clip-path="url(#pc0ba8a52ef)" style="fill: none; stroke: #0000ff; stroke-linecap: square"/>
   </g>
   <g id="line2d_20">
    <path d="M 19.156506 162.0162 
L 19.156506 162.0162 
L 25.925557 162.0162 
L 80.828638 161.035262 
L 132.261848 157.826506 
L 150.709207 156.801734 
L 209.379765 150.713554 
L 241.002557 148.688169 
L 275.881494 145.614903 
L 275.881494 145.614903 
" clip-path="url(#pc0ba8a52ef)" style="fill: none; stroke: #0000ff; stroke-linecap: square"/>
   </g>
   <g id="line2d_21">
    <path d="M 19.156506 153.9081 
L 19.156506 153.9081 
L 25.57994 153.9081 
L 81.218446 153.354519 
L 132.057707 151.78468 
L 150.797166 151.264884 
L 209.407523 148.229922 
L 240.985058 147.216802 
L 275.881494 145.675406 
L 275.881494 145.675406 
" clip-path="url(#pc0ba8a52ef)" style="fill: none; stroke: #0000ff; stroke-linecap: square"/>
   </g>
   <g id="line2d_22">
    <path d="M 19.156506 145.8 
L 19.156506 145.8 
L 25.456506 145.8 
L 81.337505 145.8 
L 131.989507 145.8 
L 150.826501 145.8 
L 209.416505 145.8 
L 240.9795 145.8 
L 275.881494 145.8 
L 275.881494 145.8 
" clip-path="url(#pc0ba8a52ef)" style="fill: none; stroke: #0000ff; stroke-linecap: square"/>
   </g>
   <g id="line2d_23">
    <path d="M 19.156506 137.6919 
L 19.156506 137.6919 
L 25.57994 137.6919 
L 81.218446 138.245481 
L 132.057707 139.81532 
L 150.797166 140.335116 
L 209.407523 143.370078 
L 240.985058 144.383198 
L 275.881494 145.924594 
L 275.881494 145.924594 
" clip-path="url(#pc0ba8a52ef)" style="fill: none; stroke: #0000ff; stroke-linecap: square"/>
   </g>
   <g id="line2d_24">
    <path d="M 19.156506 129.5838 
L 19.156506 129.5838 
L 25.925557 129.5838 
L 80.828638 130.564738 
L 132.261848 133.773494 
L 150.709207 134.798266 
L 209.379765 140.886446 
L 241.002557 142.911831 
L 275.881494 145.985097 
L 275.881494 145.985097 
" clip-path="url(#pc0ba8a52ef)" style="fill: none; stroke: #0000ff; stroke-linecap: square"/>
   </g>
   <g id="line2d_25">
    <path d="M 19.156506 121.4757 
L 19.156506 121.4757 
L 26.418545 121.4757 
L 80.062021 122.63786 
L 132.596652 127.668832 
L 150.564801 129.174232 
L 209.332466 138.371404 
L 241.032612 141.416687 
L 275.881494 146.025975 
L 275.881494 146.025975 
" clip-path="url(#pc0ba8a52ef)" style="fill: none; stroke: #0000ff; stroke-linecap: square"/>
   </g>
   <g id="line2d_26">
    <path d="M 19.156506 113.367599 
L 19.156506 113.367599 
L 26.931697 113.367599 
L 78.714051 114.358487 
L 133.040159 121.616961 
L 150.374538 123.583237 
L 209.271303 136.040151 
L 241.06785 140.145766 
L 275.881494 146.375639 
L 275.881494 146.375639 
" clip-path="url(#pc0ba8a52ef)" style="fill: none; stroke: #0000ff; stroke-linecap: square"/>
   </g>
   <g id="line2d_27">
    <path d="M 19.156506 178.232401 
L 19.156506 178.232401 
L 26.723404 174.815327 
L 81.025311 157.878314 
L 132.440433 130.246023 
L 150.433012 125.180116 
L 206.04667 99.959369 
L 250.556639 84.476739 
L 275.881494 60.989228 
L 275.881494 60.989228 
" clip-path="url(#pc0ba8a52ef)" style="fill: none; stroke: #008000; stroke-linecap: square"/>
   </g>
   <g id="line2d_28">
    <path d="M 19.156506 170.1243 
L 19.156506 170.1243 
L 26.21411 166.937212 
L 81.304941 149.774771 
L 132.883271 123.607521 
L 150.197598 119.139267 
L 205.525658 96.729576 
L 251.269445 81.964897 
L 275.881494 61.131418 
L 275.881494 61.131418 
" clip-path="url(#pc0ba8a52ef)" style="fill: none; stroke: #008000; stroke-linecap: square"/>
   </g>
   <g id="line2d_29">
    <path d="M 19.156506 162.0162 
L 19.156506 162.0162 
L 25.775911 159.026996 
L 81.309049 142.083168 
L 133.397118 117.466572 
L 149.95586 113.577832 
L 204.996896 93.698833 
L 251.941216 79.63505 
L 275.881494 61.02955 
L 275.881494 61.02955 
" clip-path="url(#pc0ba8a52ef)" style="fill: none; stroke: #008000; stroke-linecap: square"/>
   </g>
   <g id="line2d_30">
    <path d="M 19.156506 153.9081 
L 19.156506 153.9081 
L 25.508551 151.039631 
L 81.073507 134.658631 
L 133.9333 111.818349 
L 149.727926 108.484987 
L 204.489102 90.983 
L 252.509437 77.68624 
L 275.881494 61.019426 
L 275.881494 61.019426 
" clip-path="url(#pc0ba8a52ef)" style="fill: none; stroke: #008000; stroke-linecap: square"/>
   </g>
   <g id="line2d_31">
    <path d="M 19.156506 145.8 
L 19.156506 145.8 
L 25.472 142.948037 
L 80.570479 127.368094 
L 134.462498 106.557457 
L 149.523634 103.751975 
L 204.005311 88.54682 
L 252.973927 76.104467 
L 275.881494 61.158966 
L 275.881494 61.158966 
" clip-path="url(#pc0ba8a52ef)" style="fill: none; stroke: #008000; stroke-linecap: square"/>
   </g>
   <g id="line2d_32">
    <path d="M 19.156506 137.6919 
L 19.156506 137.6919 
L 25.6827 134.744788 
L 79.714855 120.083793 
L 134.969976 101.526515 
L 149.347099 99.217539 
L 203.523293 86.24698 
L 253.384854 74.711283 
L 275.881494 61.310446 
L 275.881494 61.310446 
" clip-path="url(#pc0ba8a52ef)" style="fill: none; stroke: #008000; stroke-linecap: square"/>
   </g>
   <g id="line2d_33">
    <path d="M 19.156506 129.5838 
L 19.156506 129.5838 
L 26.104636 126.446149 
L 78.356623 112.693534 
L 135.444154 96.568873 
L 149.202919 94.717872 
L 203.001755 83.884696 
L 253.822893 73.230432 
L 275.881494 61.215495 
L 275.881494 61.215495 
" clip-path="url(#pc0ba8a52ef)" style="fill: none; stroke: #008000; stroke-linecap: square"/>
   </g>
   <g id="line2d_34">
    <path d="M 19.156506 121.4757 
L 19.156506 121.4757 
L 26.639147 118.096675 
L 76.270188 105.12783 
L 135.863959 91.5854 
L 149.101366 90.143561 
L 202.393355 81.274681 
L 254.371347 71.379209 
L 275.881494 60.591241 
L 275.881494 60.591241 
" clip-path="url(#pc0ba8a52ef)" style="fill: none; stroke: #008000; stroke-linecap: square"/>
   </g>
   <g id="line2d_35">
    <path d="M 19.156506 113.367599 
L 19.156506 113.367599 
L 27.120095 109.771385 
L 73.162372 97.399905 
L 136.192785 86.578562 
L 149.059249 85.485638 
L 201.658273 78.304193 
L 255.092761 68.941823 
L 275.881494 59.210786 
L 275.881494 59.210786 
" clip-path="url(#pc0ba8a52ef)" style="fill: none; stroke: #008000; stroke-linecap: square"/>
   </g>
   <g id="line2d_36">
    <path d="M 19.156506 178.232401 
L 19.156506 178.232401 
L 26.619018 173.192961 
L 81.311118 149.379544 
L 134.1712 109.433768 
L 149.53532 104.033006 
L 200.5755 74.240071 
L 261.253411 45.470985 
L 275.881494 27.09411 
L 275.881494 27.09411 
" clip-path="url(#pc0ba8a52ef)" style="fill: none; stroke: #ff0000; stroke-linecap: square"/>
   </g>
   <g id="line2d_37">
    <path d="M 19.156506 170.1243 
L 19.156506 170.1243 
L 26.120752 165.421339 
L 81.299519 141.508697 
L 134.804181 103.185061 
L 149.31464 98.295769 
L 199.406975 70.203782 
L 262.090691 40.78876 
L 275.881494 25.714902 
L 275.881494 25.714902 
" clip-path="url(#pc0ba8a52ef)" style="fill: none; stroke: #ff0000; stroke-linecap: square"/>
   </g>
   <g id="line2d_38">
    <path d="M 19.156506 162.0162 
L 19.156506 162.0162 
L 25.71261 157.588858 
L 81.044255 134.079712 
L 135.318238 97.929734 
L 149.170505 93.485169 
L 198.418019 67.026974 
L 262.5585 37.393195 
L 275.881494 24.330669 
L 275.881494 24.330669 
" clip-path="url(#pc0ba8a52ef)" style="fill: none; stroke: #ff0000; stroke-linecap: square"/>
   </g>
   <g id="line2d_39">
    <path d="M 19.156506 153.9081 
L 19.156506 153.9081 
L 25.484473 149.634819 
L 80.531047 126.940699 
L 135.714956 93.458853 
L 149.090431 89.422876 
L 197.654789 64.705823 
L 262.767299 35.429026 
L 275.881494 23.644531 
L 275.881494 23.644531 
" clip-path="url(#pc0ba8a52ef)" style="fill: none; stroke: #ff0000; stroke-linecap: square"/>
   </g>
   <g id="line2d_40">
    <path d="M 19.156506 145.8 
L 19.156506 145.8 
L 25.491278 141.522124 
L 79.695125 119.950081 
L 136.016543 89.46906 
L 149.059895 85.823901 
L 197.068769 62.993208 
L 262.843842 34.560954 
L 275.881494 23.693933 
L 275.881494 23.693933 
" clip-path="url(#pc0ba8a52ef)" style="fill: none; stroke: #ff0000; stroke-linecap: square"/>
   </g>
   <g id="line2d_41">
    <path d="M 19.156506 137.6919 
L 19.156506 137.6919 
L 25.745705 133.242209 
L 78.418653 112.97179 
L 136.241 85.636695 
L 149.073323 82.36287 
L 196.536087 61.485073 
L 262.879531 34.11186 
L 275.881494 24.029571 
L 275.881494 24.029571 
" clip-path="url(#pc0ba8a52ef)" style="fill: none; stroke: #ff0000; stroke-linecap: square"/>
   </g>
   <g id="line2d_42">
    <path d="M 19.156506 129.5838 
L 19.156506 129.5838 
L 26.203993 124.824627 
L 76.520292 105.894961 
L 136.385481 81.673645 
L 149.139728 78.729179 
L 195.886395 59.704138 
L 262.942947 33.208054 
L 275.881494 23.902927 
L 275.881494 23.902927 
" clip-path="url(#pc0ba8a52ef)" style="fill: none; stroke: #ff0000; stroke-linecap: square"/>
   </g>
   <g id="line2d_43">
    <path d="M 19.156506 121.4757 
L 19.156506 121.4757 
L 26.751117 116.347053 
L 73.756612 98.67732 
L 136.414861 77.368078 
L 149.286432 74.668159 
L 194.919099 57.162533 
L 263.052385 30.880062 
L 275.881494 22.377075 
L 275.881494 22.377075 
" clip-path="url(#pc0ba8a52ef)" style="fill: none; stroke: #ff0000; stroke-linecap: square"/>
   </g>
   <g id="patch_2">
    <path d="M 77.917081 271.8 
Q 50.654437 271.8 23.391793 271.8 
" style="fill: none; stroke: #696969; stroke-width: 2; stroke-linecap: round"/>
    <path d="M 73.917081 269.8 
L 77.917081 271.8 
L 73.917081 273.8 
" style="fill: none; stroke: #696969; stroke-width: 2; stroke-linecap: round"/>
    <path d="M 27.391793 273.8 
L 23.391793 271.8 
L 27.391793 269.8 
" style="fill: none; stroke: #696969; stroke-width: 2; stroke-linecap: round"/>
   </g>
   <g id="text_1">
    <!-- 1 [mm] -->
    <g style="fill: #696969" transform="translate(21.196506 265.5) scale(0.16 -0.16)">
     <defs>
      <path id="DejaVuSans-31" d="M 794 531 
L 1825 531 
L 1825 4091 
L 703 3866 
L 703 4441 
L 1819 4666 
L 2450 4666 
L 2450 531 
L 3481 531 
L 3481 0 
L 794 0 
L 794 531 
z
" transform="scale(0.015625)"/>
      <path id="DejaVuSans-20" transform="scale(0.015625)"/>
      <path id="DejaVuSans-5b" d="M 550 4863 
L 1875 4863 
L 1875 4416 
L 1125 4416 
L 1125 -397 
L 1875 -397 
L 1875 -844 
L 550 -844 
L 550 4863 
z
" transform="scale(0.015625)"/>
      <path id="DejaVuSans-6d" d="M 3328 2828 
Q 3544 3216 3844 3400 
Q 4144 3584 4550 3584 
Q 5097 3584 5394 3201 
Q 5691 2819 5691 2113 
L 5691 0 
L 5113 0 
L 5113 2094 
Q 5113 2597 4934 2840 
Q 4756 3084 4391 3084 
Q 3944 3084 3684 2787 
Q 3425 2491 3425 1978 
L 3425 0 
L 2847 0 
L 2847 2094 
Q 2847 2600 2669 2842 
Q 2491 3084 2119 3084 
Q 1678 3084 1418 2786 
Q 1159 2488 1159 1978 
L 1159 0 
L 581 0 
L 581 3500 
L 1159 3500 
L 1159 2956 
Q 1356 3278 1631 3431 
Q 1906 3584 2284 3584 
Q 2666 3584 2933 3390 
Q 3200 3197 3328 2828 
z
" transform="scale(0.015625)"/>
      <path id="DejaVuSans-5d" d="M 1947 4863 
L 1947 -844 
L 622 -844 
L 622 -397 
L 1369 -397 
L 1369 4416 
L 622 4416 
L 622 4863 
L 1947 4863 
z
" transform="scale(0.015625)"/>
     </defs>
     <use xlink:href="#DejaVuSans-31"/>
     <use xlink:href="#DejaVuSans-20" x="63.623047"/>
     <use xlink:href="#DejaVuSans-5b" x="95.410156"/>
     <use xlink:href="#DejaVuSans-6d" x="134.423828"/>
     <use xlink:href="#DejaVuSans-6d" x="231.835938"/>
     <use xlink:href="#DejaVuSans-5d" x="329.248047"/>
    </g>
   </g>
  </g>
 </g>
 <defs>
  <clipPath id="pc0ba8a52ef">
   <rect x="7.2" y="7.2" width="279" height="277.2"/>
  </clipPath>
 </defs>
</svg>
