<?xml version="1.0" encoding="utf-8" standalone="no"?>
<!DOCTYPE svg PUBLIC "-//W3C//DTD SVG 1.1//EN"
  "http://www.w3.org/Graphics/SVG/1.1/DTD/svg11.dtd">
<svg xmlns:xlink="http://www.w3.org/1999/xlink" width="293.4pt" height="291.6pt" viewBox="0 0 293.4 291.6" xmlns="http://www.w3.org/2000/svg" version="1.1">
 <metadata>
  <rdf:RDF xmlns:dc="http://purl.org/dc/elements/1.1/" xmlns:cc="http://creativecommons.org/ns#" xmlns:rdf="http://www.w3.org/1999/02/22-rdf-syntax-ns#">
   <cc:Work>
    <dc:type rdf:resource="http://purl.org/dc/dcmitype/StillImage"/>
    <dc:date>2023-05-11T15:26:33.484783</dc:date>
    <dc:format>image/svg+xml</dc:format>
    <dc:creator>
     <cc:Agent>
      <dc:title>Matplotlib v3.6.2, https://matplotlib.org/</dc:title>
     </cc:Agent>
    </dc:creator>
   </cc:Work>
  </rdf:RDF>
 </metadata>
 <defs>
  <style type="text/css">*{stroke-linejoin: round; stroke-linecap: butt}</style>
 </defs>
 <g id="figure_1">
  <g id="patch_1">
   <path d="M 0 291.6 
L 293.4 291.6 
L 293.4 0 
L 0 0 
z
" style="fill: #ffffff"/>
  </g>
  <g id="axes_1">
   <g id="line2d_1">
    <path d="M 14.901495 178.397014 
L 16.531346 178.397014 
L 18.161197 178.397014 
" clip-path="url(#p29ac330ef2)" style="fill: none; stroke: #000000; stroke-width: 1.5; stroke-linecap: square"/>
   </g>
   <g id="line2d_2">
    <path d="M 14.901495 113.202986 
L 16.531346 113.202986 
L 18.161197 113.202986 
" clip-path="url(#p29ac330ef2)" style="fill: none; stroke: #000000; stroke-width: 1.5; stroke-linecap: square"/>
   </g>
   <g id="line2d_3">
    <path d="M 16.531346 113.202986 
L 16.531346 110.758208 
L 16.531346 108.313433 
" clip-path="url(#p29ac330ef2)" style="fill: none; stroke: #000000; stroke-width: 1.5; stroke-linecap: square"/>
   </g>
   <g id="line2d_4">
    <path d="M 16.531346 183.286567 
L 16.531346 180.841792 
L 16.531346 178.397014 
" clip-path="url(#p29ac330ef2)" style="fill: none; stroke: #000000; stroke-width: 1.5; stroke-linecap: square"/>
   </g>
   <g id="line2d_5">
    <path d="M 21.230448 184.665672 
L 20.767923 175.252892 
L 19.880485 157.641885 
L 19.680227 148.836381 
L 19.712605 140.334515 
L 19.973048 131.529011 
L 20.560549 119.990764 
L 21.230448 106.934328 
L 21.230448 106.934328 
" clip-path="url(#p29ac330ef2)" style="fill: none; stroke: #000000; stroke-width: 1.5; stroke-linecap: square"/>
   </g>
   <g id="line2d_6">
    <path d="M 59.967104 200.023881 
L 61.532227 196.211263 
L 62.864974 192.398648 
L 64.106625 188.162407 
L 65.221024 183.502542 
L 66.11131 178.842678 
L 66.86852 173.759189 
L 67.520198 167.828451 
L 67.995589 161.474091 
L 68.312127 154.272481 
L 68.435522 146.223624 
L 68.335942 138.174767 
L 68.020268 130.549534 
L 67.520198 123.771549 
L 66.86852 117.840811 
L 66.038666 112.333699 
L 65.036195 107.250208 
L 63.876835 102.590343 
L 62.587441 98.354102 
L 61.205519 94.541487 
L 59.967104 91.576119 
L 59.967104 91.576119 
" clip-path="url(#p29ac330ef2)" style="fill: none; stroke: #000000; stroke-width: 1.5; stroke-linecap: square"/>
   </g>
   <g id="line2d_7">
    <path d="M 100.194623 215.068658 
L 99.041701 205.868913 
L 98.053174 196.128008 
L 97.243277 185.845944 
L 96.622689 175.022716 
L 96.199316 163.658326 
L 95.982029 151.752776 
L 95.982029 139.847224 
L 96.199316 127.941674 
L 96.622689 116.577284 
L 97.243277 105.754056 
L 98.053174 95.471992 
L 99.041701 85.731087 
L 100.194623 76.531342 
L 100.194623 76.531342 
" clip-path="url(#p29ac330ef2)" style="fill: none; stroke: #000000; stroke-width: 1.5; stroke-linecap: square"/>
   </g>
   <g id="line2d_8">
    <path d="M 109.864072 216.949253 
L 111.657669 205.832184 
L 112.955967 196.382671 
L 113.963602 187.489016 
L 114.804624 178.039507 
L 115.417059 168.589995 
L 115.811743 159.140485 
L 116.002285 149.135121 
L 115.964301 139.129757 
L 115.696669 129.124394 
L 115.22633 119.674883 
L 114.534429 110.225373 
L 113.610474 100.775864 
L 112.449108 91.326354 
L 111.059261 81.876845 
L 109.864072 74.650747 
L 109.864072 74.650747 
" clip-path="url(#p29ac330ef2)" style="fill: none; stroke: #000000; stroke-width: 1.5; stroke-linecap: square"/>
   </g>
   <g id="line2d_9">
    <path d="M 153.151331 224.471642 
L 153.918371 220.783909 
L 154.55661 216.481552 
L 154.962832 212.179195 
L 155.196134 207.26222 
L 155.228999 201.730621 
L 155.032569 194.969777 
L 154.516496 185.750442 
L 153.022843 161.165555 
L 152.74185 151.946222 
L 152.695444 143.341511 
L 152.863642 134.7368 
L 153.291117 124.902846 
L 154.104713 111.995778 
L 155.005173 97.244847 
L 155.228999 89.869379 
L 155.196134 84.33778 
L 154.962832 79.420805 
L 154.55661 75.118448 
L 153.918371 70.816091 
L 153.151331 67.128358 
L 153.151331 67.128358 
" clip-path="url(#p29ac330ef2)" style="fill: none; stroke: #000000; stroke-width: 1.5; stroke-linecap: square"/>
   </g>
   <g id="line2d_10">
    <path d="M 185.396972 230.113435 
L 183.958604 225.502547 
L 182.756302 220.891652 
L 181.637845 215.622065 
L 180.756605 210.352471 
L 180.005676 204.424185 
L 179.416504 197.837199 
L 179.001299 190.591511 
L 178.737553 182.028428 
L 178.618586 170.171851 
L 178.613982 124.062942 
L 178.737553 109.571572 
L 179.030697 100.34979 
L 179.465391 93.104101 
L 180.077908 86.517116 
L 180.855007 80.58883 
L 181.763941 75.319235 
L 182.914621 70.049648 
L 184.149011 65.438761 
L 185.396972 61.486565 
L 185.396972 61.486565 
" clip-path="url(#p29ac330ef2)" style="fill: none; stroke: #000000; stroke-width: 1.5; stroke-linecap: square"/>
   </g>
   <g id="line2d_11">
    <path d="M 201.202946 240.456716 
L 202.7374 233.061657 
L 204.332249 224.187592 
L 205.833091 214.574017 
L 207.329239 203.481436 
L 208.594463 192.388851 
L 209.562387 182.035773 
L 210.309595 171.682695 
L 210.791113 162.069124 
L 211.056742 152.45555 
L 211.099831 142.841978 
L 210.919302 133.228405 
L 210.519715 123.614832 
L 209.855471 113.261752 
L 208.964427 102.908674 
L 207.776488 91.816093 
L 206.358116 80.723505 
L 204.816443 70.370427 
L 203.158329 60.756859 
L 201.527849 52.622297 
L 201.202946 51.143284 
L 201.202946 51.143284 
" clip-path="url(#p29ac330ef2)" style="fill: none; stroke: #000000; stroke-width: 1.5; stroke-linecap: square"/>
   </g>
   <g id="line2d_12">
    <path d="M 272.212428 271.8 
L 271.798613 266.878123 
L 271.153529 261.956247 
L 270.116989 256.049998 
L 268.843859 250.143749 
L 267.127292 243.253128 
L 264.669541 234.393747 
L 259.431288 216.675001 
L 256.06813 204.8625 
L 253.767801 196.003126 
L 251.947228 188.128125 
L 250.560571 181.2375 
L 249.38967 174.346876 
L 248.452219 167.456251 
L 247.76188 160.565625 
L 247.328441 153.675 
L 247.166057 147.76875 
L 247.198579 141.8625 
L 247.425633 135.95625 
L 247.933262 129.065626 
L 248.69537 122.175001 
L 249.701092 115.284374 
L 250.935617 108.393751 
L 252.380083 101.503126 
L 254.257958 93.628125 
L 256.609132 84.768748 
L 259.721338 73.940627 
L 266.601131 50.315624 
L 268.612291 42.440623 
L 269.919826 36.534374 
L 270.999409 30.628125 
L 271.687148 25.706249 
L 272.149596 20.784372 
L 272.212428 19.8 
L 272.212428 19.8 
" clip-path="url(#p29ac330ef2)" style="fill: none; stroke: #000000; stroke-width: 1.5; stroke-linecap: square"/>
   </g>
   <g id="line2d_13">
    <path d="M 278.498505 271.173135 
L 278.498505 20.426865 
L 278.498505 20.426865 
" clip-path="url(#p29ac330ef2)" style="fill: none; stroke: #000000; stroke-width: 1.5; stroke-linecap: square"/>
   </g>
   <g id="line2d_14">
    <path d="M 21.230448 106.934328 
L 21.230448 91.576119 
L 59.967104 91.576119 
" clip-path="url(#p29ac330ef2)" style="fill: none; stroke: #000000; stroke-width: 1.5; stroke-linecap: square"/>
   </g>
   <g id="line2d_15">
    <path d="M 21.230448 184.665672 
L 21.230448 200.023881 
L 59.967104 200.023881 
" clip-path="url(#p29ac330ef2)" style="fill: none; stroke: #000000; stroke-width: 1.5; stroke-linecap: square"/>
   </g>
   <g id="line2d_16">
    <path d="M 100.194623 76.531342 
L 100.194623 74.650747 
L 109.864072 74.650747 
" clip-path="url(#p29ac330ef2)" style="fill: none; stroke: #000000; stroke-width: 1.5; stroke-linecap: square"/>
   </g>
   <g id="line2d_17">
    <path d="M 100.194623 215.068658 
L 100.194623 216.949253 
L 109.864072 216.949253 
" clip-path="url(#p29ac330ef2)" style="fill: none; stroke: #000000; stroke-width: 1.5; stroke-linecap: square"/>
   </g>
   <g id="line2d_18">
    <path d="M 153.151331 67.128358 
L 153.151331 61.486565 
L 185.396972 61.486565 
" clip-path="url(#p29ac330ef2)" style="fill: none; stroke: #000000; stroke-width: 1.5; stroke-linecap: square"/>
   </g>
   <g id="line2d_19">
    <path d="M 153.151331 224.471642 
L 153.151331 230.113435 
L 185.396972 230.113435 
" clip-path="url(#p29ac330ef2)" style="fill: none; stroke: #000000; stroke-width: 1.5; stroke-linecap: square"/>
   </g>
   <g id="line2d_20">
    <path d="M 201.202946 51.143284 
L 201.202946 19.8 
L 272.212428 19.8 
" clip-path="url(#p29ac330ef2)" style="fill: none; stroke: #000000; stroke-width: 1.5; stroke-linecap: square"/>
   </g>
   <g id="line2d_21">
    <path d="M 201.202946 240.456716 
L 201.202946 271.8 
L 272.212428 271.8 
" clip-path="url(#p29ac330ef2)" style="fill: none; stroke: #000000; stroke-width: 1.5; stroke-linecap: square"/>
   </g>
   <g id="line2d_22">
    <path d="M 16.531346 178.071046 
L 16.531346 178.071046 
L 20.923183 178.071046 
L 66.368595 177.263544 
L 96.578383 174.065699 
L 115.188846 172.529295 
L 153.244696 165.827493 
L 178.615836 162.578109 
L 210.991206 155.72281 
L 247.22977 150.964261 
L 278.498505 145.22498 
L 278.498505 145.22498 
" clip-path="url(#p29ac330ef2)" style="fill: none; stroke: #0000ff; stroke-linecap: square"/>
   </g>
   <g id="line2d_23">
    <path d="M 16.531346 170.003283 
L 16.531346 170.003283 
L 20.469597 170.003283 
L 67.396359 169.126714 
L 96.296926 166.876307 
L 115.559984 165.70912 
L 153.011843 160.903745 
L 178.622741 158.475028 
L 211.040347 153.40435 
L 247.201762 149.880102 
L 278.498505 145.651877 
L 278.498505 145.651877 
" clip-path="url(#p29ac330ef2)" style="fill: none; stroke: #0000ff; stroke-linecap: square"/>
   </g>
   <g id="line2d_24">
    <path d="M 16.531346 161.935523 
L 16.531346 161.935523 
L 20.053346 161.935523 
L 68.010624 161.217643 
L 96.103889 159.772208 
L 115.816458 158.98543 
L 152.833855 155.875738 
L 178.630692 154.256959 
L 211.078862 150.903333 
L 247.176683 148.569853 
L 278.498505 145.774426 
L 278.498505 145.774426 
" clip-path="url(#p29ac330ef2)" style="fill: none; stroke: #0000ff; stroke-linecap: square"/>
   </g>
   <g id="line2d_25">
    <path d="M 16.531346 153.867761 
L 16.531346 153.867761 
L 19.767119 153.867761 
L 68.334807 153.467896 
L 95.991878 152.758792 
L 115.96593 152.362482 
L 152.723691 150.833546 
L 178.63664 150.023623 
L 211.102536 148.353728 
L 247.160632 147.190832 
L 278.498505 145.79792 
L 278.498505 145.79792 
" clip-path="url(#p29ac330ef2)" style="fill: none; stroke: #0000ff; stroke-linecap: square"/>
   </g>
   <g id="line2d_26">
    <path d="M 16.531346 145.8 
L 16.531346 145.8 
L 19.665674 145.8 
L 68.435824 145.8 
L 95.955224 145.8 
L 116.014929 145.8 
L 152.686566 145.8 
L 178.638807 145.8 
L 211.110457 145.8 
L 247.155221 145.8 
L 278.498505 145.8 
L 278.498505 145.8 
" clip-path="url(#p29ac330ef2)" style="fill: none; stroke: #0000ff; stroke-linecap: square"/>
   </g>
   <g id="line2d_27">
    <path d="M 16.531346 137.732239 
L 16.531346 137.732239 
L 19.767119 137.732239 
L 68.334807 138.132104 
L 95.991878 138.841208 
L 115.96593 139.237518 
L 152.723691 140.766454 
L 178.63664 141.576377 
L 211.102536 143.246272 
L 247.160632 144.409168 
L 278.498505 145.80208 
L 278.498505 145.80208 
" clip-path="url(#p29ac330ef2)" style="fill: none; stroke: #0000ff; stroke-linecap: square"/>
   </g>
   <g id="line2d_28">
    <path d="M 16.531346 129.664477 
L 16.531346 129.664477 
L 20.053346 129.664477 
L 68.010624 130.382357 
L 96.103889 131.827792 
L 115.816458 132.61457 
L 152.833855 135.724262 
L 178.630692 137.343041 
L 211.078862 140.696667 
L 247.176683 143.030147 
L 278.498505 145.825574 
L 278.498505 145.825574 
" clip-path="url(#p29ac330ef2)" style="fill: none; stroke: #0000ff; stroke-linecap: square"/>
   </g>
   <g id="line2d_29">
    <path d="M 16.531346 121.596717 
L 16.531346 121.596717 
L 20.469597 121.596717 
L 67.396359 122.473286 
L 96.296926 124.723693 
L 115.559984 125.89088 
L 153.011843 130.696255 
L 178.622741 133.124972 
L 211.040347 138.19565 
L 247.201762 141.719898 
L 278.498505 145.948123 
L 278.498505 145.948123 
" clip-path="url(#p29ac330ef2)" style="fill: none; stroke: #0000ff; stroke-linecap: square"/>
   </g>
   <g id="line2d_30">
    <path d="M 16.531346 113.528954 
L 16.531346 113.528954 
L 20.923183 113.528954 
L 66.368595 114.336456 
L 96.578383 117.534301 
L 115.188846 119.070705 
L 153.244696 125.772507 
L 178.615836 129.021891 
L 210.991206 135.87719 
L 247.22977 140.635739 
L 278.498505 146.37502 
L 278.498505 146.37502 
" clip-path="url(#p29ac330ef2)" style="fill: none; stroke: #0000ff; stroke-linecap: square"/>
   </g>
   <g id="line2d_31">
    <path d="M 16.531346 178.071046 
L 16.531346 178.071046 
L 20.817373 176.135553 
L 67.990074 161.566788 
L 95.955673 146.56892 
L 115.98175 140.398893 
L 153.537152 120.653142 
L 178.671269 113.770588 
L 208.615043 99.410325 
L 257.183717 82.712874 
L 278.498505 63.247438 
L 278.498505 63.247438 
" clip-path="url(#p29ac330ef2)" style="fill: none; stroke: #008000; stroke-linecap: square"/>
   </g>
   <g id="line2d_32">
    <path d="M 16.531346 170.003283 
L 16.531346 170.003283 
L 20.373173 168.268384 
L 68.334702 153.471799 
L 95.986401 139.381232 
L 115.845782 133.62372 
L 153.866524 115.526098 
L 178.741514 109.374454 
L 208.307282 96.506989 
L 257.750905 80.713842 
L 278.498505 63.415143 
L 278.498505 63.415143 
" clip-path="url(#p29ac330ef2)" style="fill: none; stroke: #008000; stroke-linecap: square"/>
   </g>
   <g id="line2d_33">
    <path d="M 16.531346 161.935523 
L 16.531346 161.935523 
L 19.985645 160.375624 
L 68.435798 145.675888 
L 96.091954 132.396092 
L 115.614849 127.119397 
L 154.194731 110.671284 
L 178.846835 105.204568 
L 207.992646 93.68289 
L 258.318899 78.73752 
L 278.498505 63.257945 
L 278.498505 63.257945 
" clip-path="url(#p29ac330ef2)" style="fill: none; stroke: #008000; stroke-linecap: square"/>
   </g>
   <g id="line2d_34">
    <path d="M 16.531346 153.867761 
L 16.531346 153.867761 
L 19.734336 152.421348 
L 68.333372 138.078631 
L 96.269172 125.583596 
L 115.296858 120.853505 
L 154.497709 106.13879 
L 178.987429 101.331614 
L 207.688383 91.070799 
L 258.822686 77.002555 
L 278.498505 63.105238 
L 278.498505 63.105238 
" clip-path="url(#p29ac330ef2)" style="fill: none; stroke: #008000; stroke-linecap: square"/>
   </g>
   <g id="line2d_35">
    <path d="M 16.531346 145.8 
L 16.531346 145.8 
L 19.668848 144.38316 
L 68.022514 130.588793 
L 96.518944 118.877869 
L 114.894058 114.749755 
L 154.761305 101.891788 
L 179.162906 97.73447 
L 207.399603 88.68661 
L 259.243765 75.56326 
L 278.498505 63.073531 
L 278.498505 63.073531 
" clip-path="url(#p29ac330ef2)" style="fill: none; stroke: #008000; stroke-linecap: square"/>
   </g>
   <g id="line2d_36">
    <path d="M 16.531346 137.732239 
L 16.531346 137.732239 
L 19.806884 136.253065 
L 67.459358 123.120836 
L 96.847143 112.192653 
L 114.401779 108.706242 
L 154.977285 97.84283 
L 179.375762 94.334157 
L 207.120822 86.463566 
L 259.60125 74.347806 
L 278.498505 63.128583 
L 278.498505 63.128583 
" clip-path="url(#p29ac330ef2)" style="fill: none; stroke: #008000; stroke-linecap: square"/>
   </g>
   <g id="line2d_37">
    <path d="M 16.531346 129.664477 
L 16.531346 129.664477 
L 20.129141 128.039777 
L 66.559683 115.599623 
L 97.264776 105.439043 
L 113.808795 102.614279 
L 155.137532 93.884645 
L 179.633724 91.02329 
L 206.838424 84.283015 
L 259.941682 73.194906 
L 278.498505 63.129046 
L 278.498505 63.129046 
" clip-path="url(#p29ac330ef2)" style="fill: none; stroke: #008000; stroke-linecap: square"/>
   </g>
   <g id="line2d_38">
    <path d="M 16.531346 121.596717 
L 16.531346 121.596717 
L 20.573038 119.77156 
L 65.194395 107.973248 
L 97.786813 98.548758 
L 113.099864 96.381516 
L 155.228431 89.918288 
L 179.950676 87.693939 
L 206.533772 82.004638 
L 260.327967 71.89122 
L 278.498505 62.865076 
L 278.498505 62.865076 
" clip-path="url(#p29ac330ef2)" style="fill: none; stroke: #008000; stroke-linecap: square"/>
   </g>
   <g id="line2d_39">
    <path d="M 16.531346 113.528954 
L 16.531346 113.528954 
L 21.028473 111.498133 
L 63.189145 100.23256 
L 98.428863 91.500699 
L 112.261421 89.957378 
L 155.226847 85.872936 
L 180.346451 84.255982 
L 206.185315 79.485385 
L 260.833682 70.189726 
L 278.498505 62.077164 
L 278.498505 62.077164 
" clip-path="url(#p29ac330ef2)" style="fill: none; stroke: #008000; stroke-linecap: square"/>
   </g>
   <g id="line2d_40">
    <path d="M 16.531346 178.071046 
L 16.531346 178.071046 
L 20.765599 175.211651 
L 68.299057 154.70118 
L 96.071427 133.436397 
L 115.548573 125.645174 
L 154.932776 98.750453 
L 179.718256 90.070121 
L 204.983491 71.421531 
L 269.498717 38.540401 
L 278.498505 24.09889 
L 278.498505 24.09889 
" clip-path="url(#p29ac330ef2)" style="fill: none; stroke: #ff0000; stroke-linecap: square"/>
   </g>
   <g id="line2d_41">
    <path d="M 16.531346 170.003283 
L 16.531346 170.003283 
L 20.328073 167.439351 
L 68.434345 146.734659 
L 96.244378 126.385926 
L 115.195295 119.173766 
L 155.124439 94.27671 
L 180.142966 85.943573 
L 204.472843 68.257965 
L 270.245491 34.890017 
L 278.498505 23.114241 
L 278.498505 23.114241 
" clip-path="url(#p29ac330ef2)" style="fill: none; stroke: #ff0000; stroke-linecap: square"/>
   </g>
   <g id="line2d_42">
    <path d="M 16.531346 161.935523 
L 16.531346 161.935523 
L 19.954933 159.623571 
L 68.358955 139.100516 
L 96.485862 119.658708 
L 114.769785 113.109755 
L 155.222662 90.34057 
L 180.598405 82.354112 
L 204.036595 65.669013 
L 270.746081 32.149293 
L 278.498505 22.055925 
L 278.498505 22.055925 
" clip-path="url(#p29ac330ef2)" style="fill: none; stroke: #ff0000; stroke-linecap: square"/>
   </g>
   <g id="line2d_43">
    <path d="M 16.531346 153.867761 
L 16.531346 153.867761 
L 19.720561 151.714081 
L 68.082677 131.688912 
L 96.793211 113.184962 
L 114.280002 107.368786 
L 155.237458 86.878472 
L 181.059538 79.283754 
L 203.692382 63.697078 
L 271.013966 30.537099 
L 278.498505 21.520288 
L 278.498505 21.520288 
" clip-path="url(#p29ac330ef2)" style="fill: none; stroke: #ff0000; stroke-linecap: square"/>
   </g>
   <g id="line2d_44">
    <path d="M 16.531346 145.8 
L 16.531346 145.8 
L 19.672785 143.678583 
L 67.576801 124.401608 
L 97.169752 106.854705 
L 113.724382 101.821596 
L 155.17938 83.747307 
L 181.520925 76.606645 
L 203.425901 62.212131 
L 271.113624 29.903463 
L 278.498505 21.6202 
L 278.498505 21.6202 
" clip-path="url(#p29ac330ef2)" style="fill: none; stroke: #ff0000; stroke-linecap: square"/>
   </g>
   <g id="line2d_45">
    <path d="M 16.531346 137.732239 
L 16.531346 137.732239 
L 19.829318 135.505116 
L 66.776929 117.147264 
L 97.626102 100.533218 
L 113.0913 96.311432 
L 155.048665 80.760899 
L 182.002742 74.122485 
L 203.196351 60.96151 
L 271.130841 29.791603 
L 278.498505 22.083537 
L 278.498505 22.083537 
" clip-path="url(#p29ac330ef2)" style="fill: none; stroke: #ff0000; stroke-linecap: square"/>
   </g>
   <g id="line2d_46">
    <path d="M 16.531346 129.664477 
L 16.531346 129.664477 
L 20.169861 127.207386 
L 65.579932 109.84902 
L 98.180571 94.081386 
L 112.360316 90.674328 
L 154.826872 77.716374 
L 182.552563 71.583624 
L 202.943874 59.615909 
L 271.172928 29.515841 
L 278.498505 22.352372 
L 278.498505 22.352372 
" clip-path="url(#p29ac330ef2)" style="fill: none; stroke: #ff0000; stroke-linecap: square"/>
   </g>
   <g id="line2d_47">
    <path d="M 16.531346 121.596717 
L 16.531346 121.596717 
L 20.626709 118.831115 
L 63.8419 102.464337 
L 98.85793 87.382655 
L 111.506755 84.764706 
L 154.469282 74.414942 
L 183.249164 68.71365 
L 202.593847 57.801097 
L 271.364531 28.202829 
L 278.498505 21.632762 
L 278.498505 21.632762 
" clip-path="url(#p29ac330ef2)" style="fill: none; stroke: #ff0000; stroke-linecap: square"/>
   </g>
   <g id="patch_2">
    <path d="M 74.980803 271.173135 
Q 47.872323 271.173135 20.763843 271.173135 
" style="fill: none; stroke: #696969; stroke-width: 2; stroke-linecap: round"/>
    <path d="M 70.980803 269.173135 
L 74.980803 271.173135 
L 70.980803 273.173135 
" style="fill: none; stroke: #696969; stroke-width: 2; stroke-linecap: round"/>
    <path d="M 24.763843 273.173135 
L 20.763843 271.173135 
L 24.763843 269.173135 
" style="fill: none; stroke: #696969; stroke-width: 2; stroke-linecap: round"/>
   </g>
   <g id="text_1">
    <!-- 1 [mm] -->
    <g style="fill: #696969" transform="translate(18.41463 264.904478) scale(0.16 -0.16)">
     <defs>
      <path id="DejaVuSans-31" d="M 794 531 
L 1825 531 
L 1825 4091 
L 703 3866 
L 703 4441 
L 1819 4666 
L 2450 4666 
L 2450 531 
L 3481 531 
L 3481 0 
L 794 0 
L 794 531 
z
" transform="scale(0.015625)"/>
      <path id="DejaVuSans-20" transform="scale(0.015625)"/>
      <path id="DejaVuSans-5b" d="M 550 4863 
L 1875 4863 
L 1875 4416 
L 1125 4416 
L 1125 -397 
L 1875 -397 
L 1875 -844 
L 550 -844 
L 550 4863 
z
" transform="scale(0.015625)"/>
      <path id="DejaVuSans-6d" d="M 3328 2828 
Q 3544 3216 3844 3400 
Q 4144 3584 4550 3584 
Q 5097 3584 5394 3201 
Q 5691 2819 5691 2113 
L 5691 0 
L 5113 0 
L 5113 2094 
Q 5113 2597 4934 2840 
Q 4756 3084 4391 3084 
Q 3944 3084 3684 2787 
Q 3425 2491 3425 1978 
L 3425 0 
L 2847 0 
L 2847 2094 
Q 2847 2600 2669 2842 
Q 2491 3084 2119 3084 
Q 1678 3084 1418 2786 
Q 1159 2488 1159 1978 
L 1159 0 
L 581 0 
L 581 3500 
L 1159 3500 
L 1159 2956 
Q 1356 3278 1631 3431 
Q 1906 3584 2284 3584 
Q 2666 3584 2933 3390 
Q 3200 3197 3328 2828 
z
" transform="scale(0.015625)"/>
      <path id="DejaVuSans-5d" d="M 1947 4863 
L 1947 -844 
L 622 -844 
L 622 -397 
L 1369 -397 
L 1369 4416 
L 622 4416 
L 622 4863 
L 1947 4863 
z
" transform="scale(0.015625)"/>
     </defs>
     <use xlink:href="#DejaVuSans-31"/>
     <use xlink:href="#DejaVuSans-20" x="63.623047"/>
     <use xlink:href="#DejaVuSans-5b" x="95.410156"/>
     <use xlink:href="#DejaVuSans-6d" x="134.423828"/>
     <use xlink:href="#DejaVuSans-6d" x="231.835938"/>
     <use xlink:href="#DejaVuSans-5d" x="329.248047"/>
    </g>
   </g>
  </g>
 </g>
 <defs>
  <clipPath id="p29ac330ef2">
   <rect x="7.2" y="7.2" width="279" height="277.2"/>
  </clipPath>
 </defs>
</svg>
